<svg width="494" height="90" viewBox="0 0 494 90" fill="none" xmlns="http://www.w3.org/2000/svg">
<g clip-path="url(#clip0)">
<path d="M65.79 73.59C64.2989 76.8446 62.0781 79.7121 59.3 81.97C56.3558 84.3198 52.9834 86.0756 49.37 87.14C45.2207 88.3755 40.909 88.9789 36.58 88.93C29.9891 88.926 23.4489 87.779 17.25 85.54C10.8678 83.2455 5.00457 79.7072 0 75.13L11.21 61.71C14.9132 64.7578 18.9893 67.3217 23.34 69.34C27.6191 71.2551 32.2622 72.2205 36.95 72.17C40.89 72.17 43.95 71.46 46.13 70.02C47.1542 69.3962 47.9952 68.5126 48.5677 67.4589C49.1403 66.4051 49.4239 65.2187 49.39 64.02V63.77C49.4161 62.6456 49.1834 61.5302 48.71 60.51C48.1108 59.4023 47.2136 58.4844 46.12 57.86C44.4434 56.8492 42.6632 56.0211 40.81 55.39C38.5367 54.57 35.5933 53.71 31.98 52.81C27.961 51.8461 24.0011 50.6507 20.12 49.23C16.8875 48.0834 13.8516 46.4441 11.12 44.37C8.65972 42.4581 6.69177 39.9862 5.38 37.16C3.93407 33.7804 3.25119 30.1236 3.38 26.45V26.2C3.32299 22.5315 4.07408 18.8955 5.58 15.55C7.03388 12.4114 9.14081 9.61922 11.76 7.35998C14.5455 4.98319 17.7744 3.18184 21.26 2.05997C25.1901 0.789784 29.3 0.165025 33.43 0.209981C39.3601 0.147205 45.2566 1.10796 50.86 3.04998C56.1434 4.93258 61.0773 7.68 65.46 11.18L55.6 25.46C52.0472 23.0027 48.2505 20.9183 44.27 19.24C40.7596 17.757 36.9908 16.9821 33.18 16.96C29.4933 16.96 26.7233 17.68 24.87 19.12C24.0119 19.7254 23.3121 20.5285 22.83 21.4615C22.3478 22.3944 22.0974 23.4298 22.1 24.48V24.77C22.0706 26.0299 22.345 27.2785 22.9 28.41C23.5879 29.587 24.5927 30.5468 25.8 31.18C27.6223 32.1743 29.5512 32.9593 31.55 33.52C33.98 34.26 37.04 35.12 40.75 36.11C44.7257 37.1298 48.6252 38.4263 52.42 39.99C55.5518 41.2526 58.467 42.997 61.06 45.16C63.3461 47.0848 65.1623 49.5064 66.37 52.24C67.6385 55.3231 68.2482 58.6373 68.16 61.97V62.22C68.2158 66.1382 67.4066 70.0204 65.79 73.59V73.59Z" fill="#101233"/>
<path d="M280.33 87.69L272.44 68.36H235.99L228.1 87.69H208.76L245.76 0.859985H263.25L300.25 87.69H280.33ZM254.21 23.69L242.76 51.69H265.69L254.21 23.69Z" fill="#101233"/>
<path d="M374.83 87.69L356.36 60.1H341.45V87.69H322.45V1.47998H361.87C372.13 1.47998 380.13 3.98331 385.87 8.98997C391.61 13.9966 394.463 20.9766 394.43 29.93V30.17C394.43 37.15 392.723 42.8366 389.31 47.23C385.867 51.6579 381.232 55.0124 375.95 56.9L397.01 87.69H374.83ZM375.2 30.91C375.2 26.81 373.887 23.73 371.26 21.67C368.633 19.61 364.967 18.5866 360.26 18.6H341.45V43.35H360.69C365.357 43.35 368.95 42.2433 371.47 40.03C372.711 38.9199 373.691 37.5489 374.339 36.0153C374.988 34.4817 375.288 32.8236 375.22 31.16L375.2 30.91Z" fill="#101233"/>
<path d="M490.77 44.71C489.037 48.3939 486.49 51.6356 483.32 54.19C480.033 56.8053 476.265 58.7519 472.23 59.92C467.811 61.2189 463.226 61.8625 458.62 61.83H444.21V87.69H425.21V1.47998H460.44C465.148 1.40838 469.835 2.13534 474.3 3.62997C478.151 4.93612 481.689 7.02683 484.69 9.76997C487.525 12.3981 489.754 15.6128 491.22 19.19C492.778 23.0418 493.553 27.1653 493.5 31.32V31.57C493.588 36.0993 492.655 40.5904 490.77 44.71V44.71ZM474.27 31.65C474.27 27.3833 472.893 24.14 470.14 21.92C467.387 19.7 463.63 18.5933 458.87 18.6H444.21V44.95H459.21C463.97 44.95 467.663 43.7 470.29 41.2C471.576 40.0204 472.597 38.5817 473.287 36.9787C473.976 35.3757 474.318 33.6447 474.29 31.9L474.27 31.65Z" fill="#101233"/>
<path d="M163.63 44.45H140.07L155.23 65.13C153.223 66.9932 150.913 68.5014 148.4 69.59C145.092 71.0034 141.527 71.7151 137.93 71.68C134.306 71.7273 130.715 70.994 127.4 69.53C124.298 68.1312 121.496 66.1446 119.15 63.68C116.792 61.189 114.95 58.256 113.73 55.05C112.442 51.7106 111.795 48.1589 111.82 44.58V44.34C111.778 40.7828 112.413 37.2501 113.69 33.93C114.905 30.7724 116.699 27.8693 118.98 25.37C121.259 22.8967 124.028 20.9248 127.11 19.58C130.451 18.1481 134.056 17.436 137.69 17.49C141.293 17.455 144.862 18.1879 148.16 19.64C151.297 21.0199 154.128 23.0112 156.487 25.4973C158.846 27.9835 160.686 30.9148 161.9 34.12C163.159 37.4046 163.803 40.8925 163.8 44.41V44.49H183.64V44.3C183.683 38.3609 182.53 32.4739 180.25 26.99C178.055 21.7353 174.828 16.9746 170.76 12.99C166.587 8.93429 161.675 5.71622 156.29 3.50998C144.483 -1.16983 131.336 -1.16983 119.53 3.50998C114.146 5.68694 109.247 8.90812 105.114 12.9878C100.981 17.0674 97.6965 21.9249 95.45 27.28C93.1319 32.7509 91.9578 38.6383 92 44.58V44.83C91.9566 50.769 93.1095 56.656 95.39 62.14C97.5725 67.3988 100.797 72.1611 104.87 76.14C109.045 80.1935 113.956 83.4113 119.34 85.62C125.157 88.0198 131.397 89.227 137.69 89.17C144.002 89.235 150.264 88.0418 156.11 85.66C159.669 84.1906 163.029 82.2789 166.11 79.97L171.77 87.69H195.33L163.63 44.45Z" fill="#101233"/>
</g>
<defs>
<clipPath id="clip0">
<rect width="493.48" height="89.18" fill="white"/>
</clipPath>
</defs>
</svg>
