<svg width="104" height="90" viewBox="0 0 104 90" fill="none" xmlns="http://www.w3.org/2000/svg">
<g clip-path="url(#clip0)">
<path d="M71.62 44.45H48.09L63.24 65.14C61.2349 67.0035 58.9247 68.5087 56.41 69.59C53.1044 71.0116 49.5382 71.7269 45.94 71.69C42.3152 71.7388 38.7228 71.0019 35.41 69.53C32.2927 68.1342 29.4809 66.1379 27.1353 63.655C24.7898 61.1722 22.9564 58.2516 21.74 55.06C20.457 51.7193 19.8093 48.1685 19.83 44.59V44.34C19.8066 40.784 20.4547 37.2556 21.74 33.94C22.9565 30.7807 24.7542 27.8772 27.04 25.38C29.3076 22.8984 32.0749 20.9251 35.16 19.59C38.487 18.1579 42.0782 17.4424 45.7 17.49C49.304 17.4554 52.8739 18.1918 56.17 19.65C59.3029 21.0323 62.1299 23.0233 64.4869 25.5073C66.8439 27.9913 68.6839 30.9189 69.9 34.12C71.1575 37.4083 71.8015 40.8994 71.8 44.42V44.42C71.8 44.42 71.8 44.48 71.8 44.51H91.62V44.31C91.6626 38.3742 90.5097 32.4907 88.23 27.01C86.0402 21.7551 82.8164 16.9941 78.75 13.01C74.5718 8.95334 69.657 5.73226 64.27 3.51999C52.4635 -1.15982 39.3165 -1.15982 27.51 3.51999C22.127 5.70097 17.2283 8.92473 13.0958 13.0058C8.96319 17.0869 5.67827 21.9448 3.42998 27.3C1.10995 32.7704 -0.0642223 38.6582 -0.0200297 44.6V44.85C-0.0645371 50.7859 1.08846 56.6698 3.36999 62.15C5.55611 67.4068 8.78046 72.1685 12.85 76.15C17.0236 80.2077 21.9353 83.429 27.32 85.64C39.1298 90.3204 52.2801 90.3204 64.09 85.64C67.6475 84.1677 71.0069 82.2562 74.09 79.95L79.74 87.67H103.3L71.62 44.45Z" fill="#101233"/>
</g>
<defs>
<clipPath id="clip0">
<rect width="103.33" height="89.18" fill="white"/>
</clipPath>
</defs>
</svg>
